<svg xmlns="http://www.w3.org/2000/svg" xmlns:xlink="http://www.w3.org/1999/xlink" width="45" zoomAndPan="magnify" viewBox="0 0 33.75 33.749999" height="45" preserveAspectRatio="xMidYMid meet" version="1.0"><defs><clipPath id="39e36da9d7"><path d="M 1.949219 0.898438 L 23.699219 0.898438 L 23.699219 22.648438 L 1.949219 22.648438 Z M 1.949219 0.898438 " clip-rule="nonzero"/></clipPath><clipPath id="cb4d1ff317"><path d="M 12.824219 0.898438 C 6.820312 0.898438 1.949219 5.769531 1.949219 11.773438 C 1.949219 17.78125 6.820312 22.648438 12.824219 22.648438 C 18.832031 22.648438 23.699219 17.78125 23.699219 11.773438 C 23.699219 5.769531 18.832031 0.898438 12.824219 0.898438 " clip-rule="nonzero"/></clipPath><clipPath id="41d584306e"><path d="M 17 17 L 32 17 L 32 32 L 17 32 Z M 17 17 " clip-rule="nonzero"/></clipPath><clipPath id="8e62a52338"><path d="M 21.316406 16.875 L 32.617188 28.171875 L 28.140625 32.648438 L 16.84375 21.351562 Z M 21.316406 16.875 " clip-rule="nonzero"/></clipPath><clipPath id="1bf7aceabd"><path d="M 22.378906 17.9375 L 31.441406 27 C 31.722656 27.28125 31.882812 27.664062 31.882812 28.0625 C 31.882812 28.460938 31.722656 28.839844 31.441406 29.121094 L 29.121094 31.445312 C 28.839844 31.726562 28.460938 31.882812 28.0625 31.882812 C 27.664062 31.882812 27.28125 31.726562 27 31.445312 L 17.933594 22.378906 C 17.652344 22.097656 17.496094 21.714844 17.496094 21.316406 C 17.496094 20.917969 17.652344 20.539062 17.933594 20.257812 L 20.257812 17.9375 C 20.539062 17.65625 20.917969 17.496094 21.316406 17.496094 C 21.714844 17.496094 22.097656 17.65625 22.378906 17.9375 " clip-rule="nonzero"/></clipPath><clipPath id="becd5ec2cc"><path d="M 17 17 L 32 17 L 32 32 L 17 32 Z M 17 17 " clip-rule="nonzero"/></clipPath><clipPath id="52a44ca23f"><path d="M 21.316406 16.875 L 32.453125 28.011719 L 28.210938 32.253906 L 17.074219 21.117188 Z M 21.316406 16.875 " clip-rule="nonzero"/></clipPath><clipPath id="0c7c54dc5d"><path d="M 21.316406 16.875 L 32.5625 28.121094 L 28.289062 32.394531 L 17.042969 21.148438 Z M 21.316406 16.875 " clip-rule="nonzero"/></clipPath><clipPath id="66809127d2"><path d="M 22.375 17.929688 L 31.398438 26.957031 C 31.675781 27.234375 31.839844 27.609375 31.847656 28 C 31.855469 28.386719 31.707031 28.753906 31.441406 29.023438 L 29.222656 31.242188 C 28.953125 31.507812 28.585938 31.65625 28.199219 31.648438 C 27.808594 31.640625 27.433594 31.476562 27.15625 31.199219 L 18.128906 22.175781 C 17.851562 21.894531 17.6875 21.519531 17.679688 21.128906 C 17.671875 20.742188 17.820312 20.375 18.085938 20.105469 L 20.304688 17.890625 C 20.574219 17.621094 20.941406 17.472656 21.328125 17.480469 C 21.71875 17.488281 22.09375 17.652344 22.375 17.929688 " clip-rule="nonzero"/></clipPath><clipPath id="43b1ee0702"><path d="M 26.601562 26.503906 L 32.597656 26.503906 L 32.597656 32.503906 L 26.601562 32.503906 Z M 26.601562 26.503906 " clip-rule="nonzero"/></clipPath><clipPath id="e0ac0c2244"><path d="M 29.597656 26.503906 C 27.941406 26.503906 26.601562 27.847656 26.601562 29.503906 C 26.601562 31.160156 27.941406 32.503906 29.597656 32.503906 C 31.257812 32.503906 32.597656 31.160156 32.597656 29.503906 C 32.597656 27.847656 31.257812 26.503906 29.597656 26.503906 " clip-rule="nonzero"/></clipPath><clipPath id="114b7806db"><path d="M 15 15 L 24 15 L 24 24 L 15 24 Z M 15 15 " clip-rule="nonzero"/></clipPath><clipPath id="925a72cb7e"><path d="M 15.882812 21.722656 L 22.503906 15.625 L 26.671875 20.15625 L 20.054688 26.25 Z M 15.882812 21.722656 " clip-rule="nonzero"/></clipPath><clipPath id="9711f8af3f"><path d="M 23.296875 23.140625 L 22.492188 15.636719 L 15.882812 21.722656 L 23.296875 23.140625 " clip-rule="nonzero"/></clipPath></defs><g clip-path="url(#39e36da9d7)"><g clip-path="url(#cb4d1ff317)"><path stroke-linecap="butt" transform="matrix(0.763158, 0, 0, 0.763158, 1.95, 0.9)" fill="none" stroke-linejoin="miter" d="M 14.248975 -0.00204737 C 6.381788 -0.00204737 -0.00102397 6.380765 -0.00102397 14.247952 C -0.00102397 22.120258 6.381788 28.497951 14.248975 28.497951 C 22.121281 28.497951 28.498975 22.120258 28.498975 14.247952 C 28.498975 6.380765 22.121281 -0.00204737 14.248975 -0.00204737 " stroke="#000000" stroke-width="6" stroke-opacity="1" stroke-miterlimit="4"/></g></g><g clip-path="url(#41d584306e)"><g clip-path="url(#8e62a52338)"><g clip-path="url(#1bf7aceabd)"><path fill="#000000" d="M 21.316406 16.875 L 32.503906 28.0625 L 28.027344 32.535156 L 16.84375 21.351562 Z M 21.316406 16.875 " fill-opacity="1" fill-rule="nonzero"/></g></g></g><g clip-path="url(#becd5ec2cc)"><g clip-path="url(#52a44ca23f)"><g clip-path="url(#0c7c54dc5d)"><g clip-path="url(#66809127d2)"><path stroke-linecap="butt" transform="matrix(0.527973, 0.527973, -0.506584, 0.506584, 21.317476, 16.875676)" fill="none" stroke-linejoin="miter" d="M 1.999663 -0.00346681 L 19.09408 0.000388674 C 19.619379 0.000388674 20.129881 0.208585 20.507208 0.586422 C 20.880836 0.960404 21.087997 1.469327 21.091696 1.997528 L 21.091696 6.377356 C 21.087997 6.905557 20.880836 7.41448 20.507208 7.788462 C 20.129881 8.166299 19.619379 8.374495 19.09408 8.374495 L 1.999663 8.378351 C 1.470665 8.374495 0.960163 8.166299 0.582835 7.788462 C 0.209207 7.41448 0.00204686 6.905557 -0.00165243 6.377356 L 0.00204686 2.001384 C 0.00204686 1.469327 0.209207 0.960404 0.582835 0.586422 C 0.960163 0.208585 1.470665 0.000388674 1.999663 -0.00346681 " stroke="#000000" stroke-width="4" stroke-opacity="1" stroke-miterlimit="4"/></g></g></g></g><g clip-path="url(#43b1ee0702)"><g clip-path="url(#e0ac0c2244)"><path fill="#000000" d="M 26.601562 26.503906 L 32.597656 26.503906 L 32.597656 32.503906 L 26.601562 32.503906 Z M 26.601562 26.503906 " fill-opacity="1" fill-rule="nonzero"/></g></g><g clip-path="url(#114b7806db)"><g clip-path="url(#925a72cb7e)"><g clip-path="url(#9711f8af3f)"><path fill="#000000" d="M 15.882812 21.722656 L 22.503906 15.625 L 26.609375 20.085938 L 19.992188 26.179688 Z M 15.882812 21.722656 " fill-opacity="1" fill-rule="nonzero"/></g></g></g></svg>